<?xml version="1.0" encoding="iso-8859-1"?>
<!-- Generator: Adobe Illustrator 19.0.0, SVG Export Plug-In . SVG Version: 6.00 Build 0)  -->
<svg xmlns="http://www.w3.org/2000/svg" xmlns:xlink="http://www.w3.org/1999/xlink" version="1.1" id="Layer_1" x="0px" y="0px" viewBox="0 0 505 505" style="enable-background:new 0 0 505 505;" xml:space="preserve" width="256" height="256">
<g>
	<path d="M482.628,91.892C494.964,91.892,505,81.856,505,69.52V42.576c0-12.336-10.036-22.372-22.372-22.372h-57.081   c-4.143,0-7.5,3.358-7.5,7.5s3.357,7.5,7.5,7.5h57.081c4.065,0,7.372,3.307,7.372,7.372V69.52c0,4.065-3.307,7.372-7.372,7.372   H22.372c-4.065,0-7.372-3.307-7.372-7.372V42.576c0-4.065,3.307-7.372,7.372-7.372h373.173c4.143,0,7.5-3.358,7.5-7.5   s-3.357-7.5-7.5-7.5H22.372C10.036,20.204,0,30.24,0,42.576V69.52c0,12.336,10.036,22.372,22.372,22.372h0.761v111.407H7.5   c-4.142,0-7.5,3.358-7.5,7.5s3.358,7.5,7.5,7.5h15.633v37.536C10.21,256.839,0,267.668,0,280.844s10.21,24.005,23.133,25.009   v171.443c0,4.142,3.358,7.5,7.5,7.5h443.73c4.143,0,7.5-3.358,7.5-7.5V305.853C494.788,304.851,505,294.021,505,280.844   s-10.212-24.007-23.137-25.009v-37.536H497.5c4.143,0,7.5-3.358,7.5-7.5s-3.357-7.5-7.5-7.5h-15.637V91.892H482.628z    M121.95,203.299H66.579v-68.402h55.371V203.299z M221.371,218.299v37.452h-52.504v-37.452H221.371z M262.56,218.299v37.452   h-26.189v-37.452H262.56z M332.931,203.299H277.56v-68.402h55.371V203.299z M423.882,218.299v37.452h-52.504v-37.452H423.882z    M356.378,255.751h-8.447v-37.452h8.447V255.751z M332.931,255.751h-29.057v-37.452h29.057V255.751z M288.875,218.299v37.452   H277.56v-37.452H288.875z M153.867,255.751H136.95v-37.452h16.917V255.751z M121.95,255.751h-20.587v-37.452h20.587V255.751z    M86.363,218.299v37.452H66.579v-37.452H86.363z M51.579,255.751H38.133v-37.452h13.446V255.751z M121.95,469.796H66.579V348.941   h55.371V469.796z M332.931,469.796H277.56V348.941h55.371V469.796z M490,280.844c0,5.565-4.527,10.093-10.093,10.093H108.849   c-4.142,0-7.5,3.358-7.5,7.5s3.358,7.5,7.5,7.5h358.015v163.859H347.931V341.441c0-4.142-3.357-7.5-7.5-7.5H270.06   c-4.143,0-7.5,3.358-7.5,7.5v128.355H136.95V341.441c0-4.142-3.358-7.5-7.5-7.5H59.079c-4.142,0-7.5,3.358-7.5,7.5v128.355H38.133   V305.937h40.714c4.142,0,7.5-3.358,7.5-7.5s-3.358-7.5-7.5-7.5H25.093c-5.565,0-10.093-4.528-10.093-10.093   s4.527-10.093,10.093-10.093h454.815C485.473,270.751,490,275.279,490,280.844z M466.864,255.751h-27.981v-37.452h27.981V255.751z    M347.931,203.299v-75.902c0-4.142-3.357-7.5-7.5-7.5H270.06c-4.143,0-7.5,3.358-7.5,7.5v75.902H136.95v-75.902   c0-4.142-3.358-7.5-7.5-7.5H59.079c-4.142,0-7.5,3.358-7.5,7.5v75.902H38.133V91.896h428.73v111.403H347.931z"/>
	<path d="M234.94,119.897h-70.371c-4.142,0-7.5,3.358-7.5,7.5v56.036c0,4.142,3.358,7.5,7.5,7.5h70.371c4.142,0,7.5-3.358,7.5-7.5   v-56.036C242.44,123.255,239.083,119.897,234.94,119.897z M227.44,175.932h-55.371v-41.036h55.371V175.932z"/>
	<path d="M445.921,119.897H375.55c-4.143,0-7.5,3.358-7.5,7.5v56.036c0,4.142,3.357,7.5,7.5,7.5h70.371c4.143,0,7.5-3.358,7.5-7.5   v-56.036C453.421,123.255,450.064,119.897,445.921,119.897z M438.421,175.932H383.05v-41.036h55.371V175.932z"/>
	<path d="M164.569,404.977h70.371c4.142,0,7.5-3.358,7.5-7.5v-56.036c0-4.142-3.358-7.5-7.5-7.5h-70.371c-4.142,0-7.5,3.358-7.5,7.5   v56.036C157.069,401.62,160.427,404.977,164.569,404.977z M172.069,348.941h55.371v41.036h-55.371V348.941z"/>
	<path d="M375.55,404.977h70.371c4.143,0,7.5-3.358,7.5-7.5v-56.036c0-4.142-3.357-7.5-7.5-7.5H375.55c-4.143,0-7.5,3.358-7.5,7.5   v56.036C368.05,401.62,371.408,404.977,375.55,404.977z M383.05,348.941h55.371v41.036H383.05V348.941z"/>
	<path d="M70.643,420.869c1.22,2.89,4.151,4.774,7.298,4.621c3.126-0.152,5.903-2.313,6.806-5.31   c2.009-6.667-5.731-12.301-11.455-8.328C70.413,413.851,69.35,417.632,70.643,420.869z"/>
	<path d="M282.603,420.869c1.096,2.73,3.84,4.56,6.765,4.627c3.398,0.077,6.469-2.227,7.384-5.492   c0.801-2.858-0.241-6.062-2.581-7.891c-2.627-2.054-6.346-2.116-9.051-0.176C282.344,413.927,281.277,417.721,282.603,420.869z"/>
</g>
</svg>
